<svg version="1.0" xmlns="http://www.w3.org/2000/svg" preserveAspectRatio="xMidYMid meet" viewBox="10.25 74.27 240.75 39.88">

<g transform="translate(0.000000,200.000000) scale(0.100000,-0.100000)" fill="#000000" stroke="none" style="--darkreader-inline-fill: #000000; --darkreader-inline-stroke: none;" data-darkreader-inline-fill="" data-darkreader-inline-stroke="">
<path d="M152 1200 c-24 -3 -36 -11 -43 -30 -12 -33 -10 -35 31 -23 19 5 36 8 38 5 2 -2 -1 -55 -7 -117 -9 -103 -2 -207 12 -168 10 28 32 195 32 248 0 53 0 53 28 48 22 -4 27 -2 27 13 0 17 -42 34 -74 29 -6 0 -26 -3 -44 -5z"/>
<path d="M1153 1250 c-32 -13 -63 -68 -63 -110 0 -20 -7 -46 -16 -58 -9 -13 -11 -22 -4 -22 8 0 9 -21 5 -66 -6 -67 -1 -104 14 -104 5 0 12 36 15 81 8 90 11 94 89 94 42 0 47 2 45 20 -3 21 -16 23 -81 12 l-38 -6 7 37 c11 62 29 82 75 82 36 0 40 2 37 23 -2 17 -10 23 -33 24 -16 1 -40 -2 -52 -7z"/>
<path d="M2046 1220 c-64 -71 -120 -210 -107 -270 9 -46 24 -48 56 -5 26 34 29 35 46 19 16 -14 23 -15 45 -5 25 11 26 26 1 26 -7 0 -18 12 -25 28 -18 37 -28 34 -52 -12 -25 -49 -40 -60 -40 -28 0 14 21 53 46 87 77 105 109 182 80 193 -9 4 -28 -8 -50 -33z m13 -62 c-28 -55 -59 -95 -59 -77 0 29 66 136 77 125 3 -2 -6 -24 -18 -48z"/>
<path d="M367 1172 c-20 -22 -22 -42 -4 -42 19 0 37 21 37 42 0 23 -12 23 -33 0z"/>
<path d="M1367 1172 c-20 -22 -22 -42 -4 -42 19 0 37 21 37 42 0 23 -12 23 -33 0z"/>
<path d="M2213 1098 c-12 -13 -29 -42 -38 -65 -17 -41 -16 -42 8 -69 23 -25 27 -26 61 -14 43 14 47 30 7 30 -42 0 -46 15 -17 53 28 36 35 87 13 87 -8 0 -23 -10 -34 -22z m11 -42 c-3 -9 -10 -16 -15 -16 -6 0 -5 9 1 21 13 24 24 20 14 -5z"/>
<path d="M1540 1045 c-29 -30 -52 -57 -49 -60 3 -2 18 9 34 25 36 38 45 38 45 0 0 -20 -5 -30 -15 -30 -16 0 -22 -54 -7 -64 9 -5 91 45 92 57 0 4 -11 5 -24 1 l-24 -6 15 52 c14 49 13 80 -5 80 -4 0 -32 -25 -62 -55z"/>
<path d="M626 1055 c-38 -41 -51 -44 -42 -11 3 14 2 27 -4 31 -12 8 -90 -63 -90 -83 0 -13 3 -12 20 3 26 24 33 16 19 -24 -18 -50 -2 -50 46 2 46 48 70 60 61 30 -24 -82 -15 -95 28 -38 31 40 45 43 71 15 21 -23 55 -27 55 -5 0 8 -5 15 -10 15 -6 0 -16 11 -22 25 -14 31 -34 32 -65 3 l-23 -22 6 47 c8 58 -5 61 -50 12z"/>
<path d="M1799 1072 c-64 -42 -89 -71 -89 -100 0 -30 26 -62 50 -62 19 0 100 49 100 60 0 14 -4 13 -45 -11 -67 -40 -91 6 -30 60 20 17 40 31 45 31 6 0 10 9 10 20 0 24 -7 25 -41 2z"/>
<path d="M2413 1083 c-7 -2 -13 -10 -13 -16 0 -6 -12 -23 -26 -38 -14 -15 -24 -33 -22 -39 2 -7 17 2 36 21 25 26 35 30 44 21 9 -9 9 -22 0 -58 -7 -26 -11 -49 -8 -51 9 -9 86 41 86 55 0 12 -4 12 -25 -2 l-25 -16 7 45 c4 36 2 50 -12 65 -19 21 -22 22 -42 13z"/>
<path d="M323 1025 c-28 -27 -30 -45 -5 -38 12 3 22 -4 30 -21 14 -31 41 -33 73 -6 l24 20 -28 -2 c-25 -3 -31 2 -40 31 -15 42 -25 45 -54 16z"/>
<path d="M1323 1025 c-28 -27 -30 -45 -5 -38 12 3 22 -4 30 -21 14 -31 41 -33 73 -6 l24 20 -28 -2 c-25 -3 -31 2 -40 31 -15 42 -25 45 -54 16z"/>
</g>
</svg>